<svg width="124" height="36" viewBox="0 0 124 36" fill="none" xmlns="http://www.w3.org/2000/svg">
<circle cx="18" cy="18" r="18" fill="white" fill-opacity="0.1"/>
<g clip-path="url(#clip0_11_299)">
<path d="M20.7516 12.6249C20.1182 12.6248 19.5101 12.8733 19.0581 13.317C18.6062 13.7607 18.3465 14.3641 18.3349 14.9974L18.3116 16.3099C18.3102 16.3804 18.2939 16.4497 18.2639 16.5135C18.2338 16.5772 18.1906 16.6339 18.1371 16.6798C18.0836 16.7257 18.021 16.7597 17.9534 16.7797C17.8858 16.7997 17.8147 16.8051 17.7449 16.7957L16.4441 16.6191C14.7324 16.3857 13.0924 15.5974 11.5191 14.2866C11.0207 17.0449 11.9941 18.9557 14.3382 20.4299L15.7941 21.3449C15.8632 21.3884 15.9207 21.4481 15.9614 21.5189C16.0022 21.5898 16.0249 21.6695 16.0277 21.7511C16.0305 21.8328 16.0133 21.9139 15.9775 21.9873C15.9417 22.0607 15.8884 22.1243 15.8224 22.1724L14.4957 23.1416C15.2849 23.1907 16.0341 23.1557 16.6557 23.0324C20.5874 22.2474 23.2016 19.2891 23.2016 14.4091C23.2016 14.0107 22.3582 12.6249 20.7516 12.6249ZM16.6682 14.9666C16.6828 14.1633 16.934 13.3821 17.3904 12.7209C17.8468 12.0597 18.4881 11.5478 19.234 11.2494C19.9799 10.9509 20.7973 10.8791 21.5838 11.043C22.3704 11.2069 23.0911 11.5992 23.6557 12.1707C24.2482 12.1666 24.7524 12.3166 25.8799 11.6332C25.6007 12.9999 25.4632 13.5932 24.8682 14.4091C24.8682 20.7774 20.9541 23.8741 16.9824 24.6666C14.2591 25.2099 10.2991 24.3174 9.16406 23.1324C9.7424 23.0874 12.0924 22.8349 13.4507 21.8407C12.3016 21.0832 7.7274 18.3916 10.7332 11.1549C12.1441 12.8024 13.5749 13.9241 15.0249 14.5191C15.9899 14.9149 16.2266 14.9066 16.6691 14.9674L16.6682 14.9666Z" fill="white" fill-opacity="0.9"/>
</g>
<circle cx="62" cy="18" r="18" fill="white" fill-opacity="0.1"/>
<g clip-path="url(#clip1_11_299)">
<path d="M62.0013 15.5C61.3383 15.5 60.7024 15.7634 60.2335 16.2322C59.7647 16.701 59.5013 17.3369 59.5013 18C59.5013 18.663 59.7647 19.2989 60.2335 19.7677C60.7024 20.2366 61.3383 20.5 62.0013 20.5C62.6643 20.5 63.3002 20.2366 63.7691 19.7677C64.2379 19.2989 64.5013 18.663 64.5013 18C64.5013 17.3369 64.2379 16.701 63.7691 16.2322C63.3002 15.7634 62.6643 15.5 62.0013 15.5ZM62.0013 13.8333C63.1064 13.8333 64.1662 14.2723 64.9476 15.0537C65.729 15.8351 66.168 16.8949 66.168 18C66.168 19.105 65.729 20.1648 64.9476 20.9462C64.1662 21.7276 63.1064 22.1666 62.0013 22.1666C60.8962 22.1666 59.8364 21.7276 59.055 20.9462C58.2736 20.1648 57.8346 19.105 57.8346 18C57.8346 16.8949 58.2736 15.8351 59.055 15.0537C59.8364 14.2723 60.8962 13.8333 62.0013 13.8333ZM67.418 13.625C67.418 13.9012 67.3082 14.1662 67.1129 14.3615C66.9175 14.5569 66.6526 14.6666 66.3763 14.6666C66.1 14.6666 65.8351 14.5569 65.6397 14.3615C65.4444 14.1662 65.3346 13.9012 65.3346 13.625C65.3346 13.3487 65.4444 13.0837 65.6397 12.8884C65.8351 12.693 66.1 12.5833 66.3763 12.5833C66.6526 12.5833 66.9175 12.693 67.1129 12.8884C67.3082 13.0837 67.418 13.3487 67.418 13.625ZM62.0013 11.3333C59.9396 11.3333 59.603 11.3391 58.6438 11.3816C57.9905 11.4125 57.5521 11.5 57.1455 11.6583C56.7838 11.7983 56.523 11.9658 56.2455 12.2441C55.9846 12.4961 55.7841 12.8038 55.6588 13.1441C55.5005 13.5525 55.413 13.99 55.383 14.6425C55.3396 15.5625 55.3346 15.8841 55.3346 18C55.3346 20.0616 55.3405 20.3983 55.383 21.3575C55.4138 22.01 55.5013 22.4491 55.6588 22.855C55.8005 23.2175 55.9671 23.4783 56.2438 23.755C56.5246 24.035 56.7855 24.2025 57.1438 24.3408C57.5555 24.5 57.9938 24.5883 58.6438 24.6183C59.5638 24.6616 59.8855 24.6666 62.0013 24.6666C64.063 24.6666 64.3996 24.6608 65.3588 24.6183C66.0105 24.5875 66.4496 24.5 66.8563 24.3425C67.2171 24.2016 67.4796 24.0341 67.7563 23.7575C68.0371 23.4766 68.2046 23.2158 68.343 22.8575C68.5013 22.4466 68.5896 22.0075 68.6196 21.3575C68.663 20.4375 68.668 20.1158 68.668 18C68.668 15.9383 68.6621 15.6016 68.6196 14.6425C68.5888 13.9908 68.5013 13.5508 68.343 13.1441C68.2174 12.8041 68.0172 12.4966 67.7571 12.2441C67.5052 11.9832 67.1976 11.7826 66.8571 11.6575C66.4488 11.4991 66.0105 11.4116 65.3588 11.3816C64.4388 11.3383 64.1171 11.3333 62.0013 11.3333ZM62.0013 9.66663C64.2655 9.66663 64.548 9.67496 65.4363 9.71663C66.3238 9.75829 66.928 9.89746 67.4596 10.1041C68.0096 10.3158 68.473 10.6025 68.9363 11.065C69.36 11.4815 69.6879 11.9854 69.8971 12.5416C70.103 13.0725 70.243 13.6775 70.2846 14.565C70.3238 15.4533 70.3346 15.7358 70.3346 18C70.3346 20.2641 70.3263 20.5466 70.2846 21.435C70.243 22.3225 70.103 22.9266 69.8971 23.4583C69.6885 24.0148 69.3606 24.5188 68.9363 24.935C68.5196 25.3586 68.0157 25.6864 67.4596 25.8958C66.9288 26.1016 66.3238 26.2416 65.4363 26.2833C64.548 26.3225 64.2655 26.3333 62.0013 26.3333C59.7371 26.3333 59.4546 26.325 58.5663 26.2833C57.6788 26.2416 57.0746 26.1016 56.543 25.8958C55.9866 25.687 55.4826 25.3591 55.0663 24.935C54.6425 24.5184 54.3146 24.0145 54.1055 23.4583C53.8988 22.9275 53.7596 22.3225 53.718 21.435C53.6788 20.5466 53.668 20.2641 53.668 18C53.668 15.7358 53.6763 15.4533 53.718 14.565C53.7596 13.6766 53.8988 13.0733 54.1055 12.5416C54.314 11.9851 54.642 11.4811 55.0663 11.065C55.4827 10.641 55.9867 10.3131 56.543 10.1041C57.0746 9.89746 57.678 9.75829 58.5663 9.71663C59.4546 9.67746 59.7371 9.66663 62.0013 9.66663Z" fill="white" fill-opacity="0.9"/>
</g>
<circle cx="106" cy="18" r="18" fill="white" fill-opacity="0.1"/>
<g clip-path="url(#clip2_11_299)">
<path d="M105.5 15.5H109.25L108.833 17.1666H105.5V24.6666H103.833V17.1666H100.5V15.5H103.833V13.94C103.833 12.4541 103.988 11.915 104.278 11.3716C104.563 10.8348 105.002 10.3958 105.538 10.1116C106.082 9.82163 106.621 9.66663 108.107 9.66663C108.542 9.66663 108.923 9.70829 109.25 9.79163V11.3333H108.107C107.003 11.3333 106.667 11.3983 106.325 11.5816C106.072 11.7166 105.883 11.905 105.748 12.1583C105.565 12.5008 105.5 12.8366 105.5 13.94V15.5Z" fill="white" fill-opacity="0.9"/>
</g>
<defs>
<clipPath id="clip0_11_299">
<rect width="20" height="20" fill="white" transform="translate(8 8)"/>
</clipPath>
<clipPath id="clip1_11_299">
<rect width="20" height="20" fill="white" transform="translate(52 8)"/>
</clipPath>
<clipPath id="clip2_11_299">
<rect width="20" height="20" fill="white" transform="translate(96 8)"/>
</clipPath>
</defs>
</svg>
